<svg width="213" height="75" viewBox="0 0 213 75" fill="none" xmlns="http://www.w3.org/2000/svg">
<rect x="1" y="1" width="211" height="73" stroke="#F1F1F1" stroke-width="2"/>
<g clip-path="url(#clip0_1_18534)">
<path d="M55.8533 45.5083C56.0717 47.4222 57.7756 48.7406 60.7897 48.7406C63.3673 48.7406 64.94 47.9324 64.94 46.4014C64.94 44.6153 63.411 44.4876 59.7848 44.0198C54.5426 43.4247 50.4799 42.2761 50.4799 37.7684C50.4799 33.2606 54.3682 30.5811 60.1344 30.6235C66.163 30.6235 70.3133 33.2178 70.619 37.6835H64.7212C64.5464 35.9398 62.8429 34.8765 60.3525 34.8765C57.8621 34.8765 56.377 35.7271 56.377 37.1308C56.377 38.7895 58.2993 38.9594 61.5323 39.3422C66.6872 39.8524 70.9683 41.0009 70.9683 45.934C70.9683 50.2719 66.7744 53.0364 60.7457 53.0364C54.7171 53.0364 50.2615 50.1866 49.9995 45.5083H55.8533Z" fill="#2C6150"/>
<path d="M79.664 30.9338H73.4673V52.7703H79.664V30.9338Z" fill="#2C6150"/>
<path d="M73.7145 25.7294C73.7145 24.1695 74.9683 23.0168 76.5707 23.0168C78.173 23.0168 79.4268 24.1699 79.4268 25.7294C79.4268 27.289 78.173 28.4083 76.5707 28.4083C74.9683 28.4083 73.7145 27.2556 73.7145 25.7294Z" fill="#2C6150"/>
<path d="M99.7061 25.7294C99.7061 24.1695 100.96 23.0168 102.562 23.0168C104.165 23.0168 105.418 24.1699 105.418 25.7294C105.418 27.289 104.165 28.4083 102.562 28.4083C100.96 28.4083 99.7061 27.2556 99.7061 25.7294Z" fill="#2C6150"/>
<path d="M81.8041 30.919H85.5136V29.3045C85.5136 25.2686 87.7391 23.0168 92.2777 23.0168H97.2963V28.4083H93.3688C91.8958 28.4093 91.5358 28.8183 91.5358 29.8989V30.9187H97.2963V35.9742H91.667V52.7551H85.514V35.9742H81.8045V30.9187L81.8041 30.919Z" fill="#2C6150"/>
<path d="M105.67 30.9338H99.4732V52.7703H105.67V30.9338Z" fill="#2C6150"/>
<path d="M108.07 41.8315C108.07 35.0977 112.754 30.623 119.933 30.623C127.112 30.623 131.797 35.0977 131.797 41.8315C131.797 48.5653 127.112 53.04 119.933 53.04C112.754 53.04 108.07 48.5653 108.07 41.8315ZM125.537 41.8315C125.537 38.1239 123.392 35.5241 119.933 35.5241C116.475 35.5241 114.373 38.1236 114.373 41.8315C114.373 45.5395 116.475 48.139 119.933 48.139C123.392 48.139 125.537 45.5392 125.537 41.8315Z" fill="#2C6150"/>
<path d="M135.699 39.1467H136.387V41.4883H139.251V39.1467H139.939V44.5382H139.251V42.1043H136.387V44.5382H135.699V39.1467Z" fill="#2C6150"/>
<path d="M140.854 39.1467H144.383V39.7631H141.542V41.4883H143.907V42.1043H141.542V43.9221H144.485V44.5385H140.854V39.1471L140.854 39.1467Z" fill="#2C6150"/>
<path d="M145.139 44.5382L147.252 39.1467H148.066L150.171 44.5382H149.435L148.849 43.0823H146.436L145.851 44.5382H145.139ZM146.642 42.474H148.644L147.639 39.8783L146.642 42.474Z" fill="#2C6150"/>
<path d="M150.869 44.5382V39.1467H151.557V43.9221H154.081V44.5385H150.869V44.5382Z" fill="#2C6150"/>
<path d="M153.701 39.1467H157.981V39.7631H156.185V44.5385H155.497V39.7631H153.701V39.1467Z" fill="#2C6150"/>
<path d="M158.748 39.1467H159.436V41.4883H162.3V39.1467H162.988V44.5382H162.3V42.1043H159.436V44.5382H158.748V39.1467Z" fill="#2C6150"/>
</g>
<defs>
<clipPath id="clip0_1_18534">
<rect width="113" height="30" fill="white" transform="translate(50 23)"/>
</clipPath>
</defs>
</svg>
