<svg width="213" height="75" viewBox="0 0 213 75" fill="none" xmlns="http://www.w3.org/2000/svg">
<rect x="1" y="1" width="211" height="73" stroke="#F1F1F1" stroke-width="2"/>
<g clip-path="url(#clip0_1_18552)">
<path d="M100.542 44.3381C99.5807 44.4222 98.6156 44.4625 97.6501 44.4589V32.9154C97.6501 32.8928 97.6501 32.8719 97.6501 32.8493V31.146C97.677 30.512 97.6036 29.8778 97.4322 29.2627C97.3814 29.0832 97.2911 28.9149 97.1668 28.768C97.0425 28.621 96.8866 28.4985 96.7086 28.4076C96.2296 28.2265 95.7116 28.1462 95.1935 28.1725H92.7363V28.668H93.2822C93.5739 28.6325 93.8707 28.6704 94.1403 28.7775C94.4099 28.8846 94.642 29.0568 94.8112 29.2753C94.9963 29.5523 95.1121 29.8628 95.1501 30.1849C95.1698 30.4663 95.1866 30.776 95.1981 31.1187C95.2159 31.631 95.2248 32.2299 95.2248 32.9154V40.793C95.2248 41.4789 95.2159 42.0778 95.1981 42.5897C95.1804 43.1017 95.1538 43.5433 95.1183 43.9146C95.0828 44.2858 95.0406 44.5964 94.9917 44.8462C94.9427 45.0961 94.8916 45.306 94.8384 45.4761V45.5244H100.598C100.686 45.5244 100.831 45.5263 101.032 45.5302L101.718 45.5422L102.538 45.5543C102.827 45.5585 103.102 45.5646 103.364 45.5727C103.627 45.5807 103.864 45.5888 104.077 45.5968C104.291 45.6049 104.451 45.6129 104.557 45.621L104.944 43.6605C104.313 43.8141 103.615 43.9473 102.851 44.0599C102.193 44.1649 101.424 44.2577 100.545 44.3381" fill="#33454F"/>
<path d="M107.754 30.8645C107.881 30.9832 108.033 31.0778 108.201 31.1427C108.42 31.2311 108.66 31.2679 108.899 31.2499C109.138 31.2319 109.368 31.1596 109.568 31.0396C109.768 30.9196 109.931 30.7559 110.043 30.5634C110.155 30.371 110.211 30.1562 110.208 29.9386C110.208 29.7657 110.169 29.5946 110.092 29.4363C109.946 29.1263 109.674 28.8793 109.332 28.7466C109.153 28.6787 108.96 28.6437 108.765 28.6437C108.571 28.6437 108.378 28.6787 108.199 28.7466C108.031 28.8117 107.879 28.9062 107.752 29.0248C107.626 29.1444 107.524 29.2839 107.452 29.4363C107.375 29.5946 107.336 29.7657 107.336 29.9386C107.335 30.1155 107.375 30.2907 107.452 30.453C107.524 30.6055 107.626 30.7449 107.752 30.8645" fill="#00BF9C"/>
<path d="M110.317 45.4898C110.255 45.2826 110.206 45.0723 110.17 44.8599C110.125 44.6097 110.085 44.2988 110.05 43.9272C110.014 43.5556 109.988 43.1136 109.97 42.6013C109.952 42.0887 109.943 41.4891 109.944 40.8025V37.8715C109.944 37.1853 109.952 36.5857 109.97 36.0727C109.988 35.5597 110.014 35.1175 110.05 34.7463C110.085 34.375 110.125 34.0641 110.17 33.8135C110.206 33.6012 110.255 33.3909 110.317 33.1837V33.1354H107.234V33.1837C107.297 33.3911 107.348 33.6014 107.388 33.8135C107.437 34.0641 107.477 34.375 107.508 34.7463C107.54 35.1175 107.567 35.5597 107.588 36.0727C107.61 36.5857 107.621 37.1853 107.622 37.8715V40.8025C107.622 41.4891 107.61 42.0887 107.588 42.6013C107.566 43.1139 107.539 43.5559 107.508 43.9272C107.477 44.2988 107.437 44.6097 107.388 44.8599C107.349 45.0721 107.297 45.2823 107.234 45.4898V45.5381H110.317V45.4898Z" fill="#33454F"/>
<path d="M136.981 34.5822C136.41 34.039 135.716 33.6138 134.947 33.3356C134.138 33.0448 133.274 32.899 132.403 32.9063C131.515 32.8994 130.635 33.0643 129.823 33.3902C129.036 33.7074 128.327 34.1641 127.737 34.7334C127.131 35.3211 126.655 36.0094 126.337 36.7606C125.993 37.5688 125.821 38.4289 125.83 39.2953C125.811 40.2372 125.999 41.1731 126.383 42.0483C126.723 42.8123 127.239 43.5014 127.897 44.0692C128.547 44.6191 129.314 45.0413 130.152 45.3095C131.042 45.5962 131.981 45.7395 132.925 45.7331C133.643 45.7415 134.361 45.6812 135.065 45.553H135.069C135.145 45.5383 135.217 45.5221 135.289 45.5058C135.685 45.4203 136.073 45.3073 136.449 45.1678L136.533 45.1347L136.54 45.1321L136.553 45.1268L136.626 45.098C137.104 44.869 137.624 44.7192 138.16 44.6555L138.187 44.6287L136.856 43.5427L136.83 43.5695C136.82 43.6052 136.804 43.6394 136.783 43.6708C136.747 43.7274 136.704 43.7803 136.655 43.8282C136.467 44.0169 136.244 44.1744 135.996 44.2938C135.642 44.4639 135.267 44.5959 134.879 44.687C134.402 44.798 133.911 44.8529 133.419 44.8502C132.727 44.8608 132.041 44.7283 131.413 44.4628C130.824 44.205 130.309 43.826 129.909 43.3558C129.473 42.8348 129.143 42.2466 128.936 41.6195C128.689 40.8804 128.543 40.1162 128.503 39.3446C129.089 39.3285 129.749 39.3164 130.482 39.3084C131.216 39.3003 131.969 39.2963 132.742 39.2963C133.827 39.2963 134.871 39.3003 135.876 39.3084C136.88 39.3164 137.884 39.3285 138.889 39.3446C138.88 38.4099 138.697 37.4831 138.348 36.6036C138.051 35.8533 137.588 35.1658 136.988 34.5828M133.828 38.3463C132.935 38.3505 132.044 38.3526 131.156 38.3526H129.768C129.323 38.3526 128.901 38.3445 128.501 38.3284C128.524 37.6781 128.641 37.0333 128.848 36.4104C129.016 35.9003 129.277 35.4196 129.621 34.9885C129.918 34.6191 130.303 34.3152 130.748 34.0993C131.186 33.8921 131.674 33.786 132.168 33.7907C132.708 33.7848 133.242 33.8926 133.729 34.1056C134.205 34.3191 134.624 34.6248 134.956 35.0011C135.325 35.4268 135.614 35.9059 135.809 36.4183C136.044 37.0291 136.196 37.6637 136.262 38.3079C135.533 38.3321 134.722 38.3463 133.828 38.3505" fill="#33454F"/>
<path d="M87.6185 52.1624C87.2955 51.8798 86.9906 51.5807 86.7054 51.2664C86.387 50.9196 86.0436 50.5084 85.6755 50.0329L82.1877 45.587L80.1249 48.7621L81.9176 51.0548C82.2196 51.4393 82.4928 51.8418 82.7354 52.2595C82.9271 52.5628 83.0667 52.891 83.1494 53.2326H89.2858V53.1555C88.9937 53.0616 88.7156 52.9354 88.4576 52.7796C88.1585 52.5971 87.8779 52.3907 87.6191 52.1629" fill="#33454F"/>
<path d="M78.7828 42.223L79.0141 41.8656L79.1141 41.7118L74.5825 35.9348C74.8341 35.8251 75.0862 35.7065 75.3343 35.5768C75.8658 35.2977 76.3716 34.9804 76.8472 34.6278C77.6343 34.0445 78.3219 33.3586 78.8875 32.5923C79.4654 31.8019 79.9096 30.9375 80.2054 30.0277C80.5264 29.0305 80.6844 27.9959 80.6744 26.9571C80.699 25.6548 80.4093 24.3634 79.8254 23.1736C79.2782 22.0848 78.4678 21.1217 77.4544 20.356C76.3958 19.5672 75.1779 18.9734 73.8689 18.6076C72.4137 18.1987 70.8975 17.997 69.3743 18.0097C67.9388 17.9932 66.5038 18.0662 65.0793 18.2281C64.8352 18.2596 64.6039 18.2874 64.3819 18.3121C63.8285 18.3795 63.2712 18.4174 62.7129 18.4254C62.3559 18.4254 62.0089 18.4221 61.6719 18.4155C61.3349 18.4088 61.0315 18.3927 60.7617 18.3672L60.0544 18.3068C59.9937 18.3016 59.9248 18.2989 59.8676 18.2974C59.8005 18.2974 59.752 18.2974 59.752 18.2974H57.0056V18.6485C58.7087 18.7992 60.251 19.9712 60.351 21.4583C60.351 21.4635 60.351 21.4688 60.351 21.4735C60.351 21.5197 60.3557 21.5659 60.3557 21.6121V21.6646H60.3638C60.3904 22.0785 60.4145 22.5334 60.4361 23.0293C60.4716 23.8523 60.4895 24.8146 60.4899 25.9162V38.5661C60.4899 39.6803 60.4719 40.6456 60.4361 41.4619C60.4002 42.2783 60.3574 42.9845 60.3077 43.5804C60.2576 44.1753 60.1934 44.6741 60.1151 45.0769C60.0516 45.4172 59.9694 45.7544 59.8687 46.0873V46.165H65.0075V46.0873C64.9068 45.7545 64.8246 45.4172 64.7612 45.0769C64.6841 44.6755 64.6199 44.1767 64.5686 43.5804C64.5174 42.9841 64.4746 42.2748 64.4402 41.4525C64.4044 40.6298 64.3864 39.6675 64.3864 38.5656V37.3058C64.3875 37.2808 64.3945 37.2564 64.4068 37.234C64.4192 37.2117 64.4368 37.192 64.4583 37.1764C64.4798 37.1608 64.5048 37.1495 64.5315 37.1434C64.5582 37.1373 64.5861 37.1365 64.6132 37.141C65.0255 37.1998 65.4355 37.2429 65.8415 37.2686C66.323 37.2994 66.8003 37.3146 67.2734 37.3142C67.679 37.3142 68.0758 37.3029 68.4641 37.2801C68.8523 37.2574 69.2409 37.2306 69.6299 37.1998C70.057 37.1629 70.4817 37.1058 70.9023 37.0287L77.0519 44.8958L78.33 42.9306L78.7828 42.223ZM70.6166 35.042C69.5021 35.3971 68.3278 35.5723 67.1467 35.5595C66.7072 35.5595 66.2511 35.5403 65.7784 35.5018C65.3672 35.4685 64.9585 35.4139 64.5542 35.338H64.5432C64.4986 35.3299 64.4585 35.3081 64.4296 35.2762C64.4008 35.2444 64.3849 35.2045 64.3848 35.1632V34.189V20.1954C64.3867 20.1608 64.3997 20.1275 64.4222 20.0995C64.4447 20.0715 64.4757 20.0501 64.5114 20.0379C64.9843 19.904 65.4675 19.8024 65.9572 19.734C66.88 19.6124 67.8122 19.5585 68.7446 19.5729C69.781 19.5524 70.8099 19.7368 71.7598 20.1135C72.5965 20.457 73.3302 20.9776 73.8996 21.6315C74.496 22.34 74.931 23.1492 75.1794 24.0119C75.4785 25.0319 75.6235 26.0842 75.6102 27.1397C75.637 28.3925 75.4314 29.6405 75.0018 30.8313C74.6438 31.8093 74.0607 32.7069 73.2912 33.4647C72.5495 34.1737 71.6333 34.7134 70.6177 35.0394" fill="#33454F"/>
<path d="M76.0523 52.7521L76.1894 52.5343L76.2356 52.4608L76.3877 52.2194L76.4363 52.1422L76.5219 52.0057L76.7596 51.6283L76.7943 51.5759L76.9099 51.3963L76.9874 51.2735L77.0817 51.1239L77.1973 50.9413L77.2627 50.8363L77.3818 50.6484L77.4593 50.5261L77.5877 50.3229L77.7832 50.0138L77.8011 49.9859L77.9277 49.786L77.9856 49.6962L78.089 49.5324L78.1649 49.4133L78.2718 49.2443L78.3181 49.1713L78.6801 48.6002L78.757 48.48L78.8385 48.352L78.9276 48.2118L78.997 48.1026L79.082 47.9693L79.159 47.8486L79.2451 47.7142L79.3029 47.6197L79.4377 47.4098L79.4724 47.3573L79.588 47.1799L79.6424 47.0948L79.7222 46.971L79.7754 46.888L79.8558 46.7636L79.902 46.6917L79.983 46.5663L80.0201 46.5085L80.1322 46.3358L80.2629 46.1359L80.2971 46.0834L80.4064 45.917L80.4538 45.8451L80.5562 45.6876L80.6191 45.5921L80.7204 45.4388L80.7881 45.3338L80.8939 45.1764L80.9633 45.0714L81.0789 44.9003L81.1472 44.7953L81.2732 44.6058L81.3432 44.5008L81.4629 44.3213L81.5433 44.2011L81.6728 44.0069L81.748 43.8935L82.4032 42.9141L82.4119 42.9009L82.6218 42.586L82.6797 42.4989L82.8375 42.2627L82.926 42.1315L83.0625 41.9278L83.1562 41.7882L83.2921 41.5861L83.3817 41.4528L83.5211 41.2454L83.6171 41.1027L83.7154 40.9562L83.8623 40.7379L83.8947 40.6901L84.0768 40.4198L84.104 40.3794L84.3197 40.0592L84.4418 39.8781L84.6511 39.5673L84.7199 39.465L84.916 39.1742L84.9536 39.118L85.193 38.7632L85.2312 38.706C85.7586 37.9239 86.2183 37.2436 86.5445 36.7607L86.8371 36.4127C87.2473 35.9205 87.705 35.4623 88.2048 35.0438C88.515 34.7732 88.854 34.531 89.2168 34.321V34.2528H83.3517C83.3466 34.4292 83.3246 34.6048 83.2857 34.7777C83.2279 35.0367 83.1433 35.2901 83.033 35.5346C82.8998 35.8352 82.7453 36.1277 82.5703 36.4101L80.245 39.9852L79.1289 41.7L79.0288 41.8538L78.7975 42.2112L78.3418 42.9114L77.0637 44.8761L76.792 45.296L76.6635 45.4934L75.4104 47.4187L74.0554 49.5025L70.6712 54.6795C69.5076 56.4327 68.5164 57.484 66.7115 57.6373V57.9885H67.531V57.9974H73.3961C73.401 57.821 73.4228 57.6454 73.4615 57.4725C73.5195 57.2135 73.6043 56.9601 73.7148 56.7156C73.8415 56.3824 73.9962 56.0584 74.1774 55.7467C74.2295 55.6621 74.2994 55.5524 74.359 55.4648C74.3526 55.4595 74.3555 55.4648 74.359 55.4648L75.3051 53.9573L76.017 52.824L76.0662 52.7458" fill="#00BF9C"/>
<path d="M124.09 33.1354V33.1837C124.116 33.2273 124.134 33.2742 124.143 33.3228C124.163 33.4091 124.172 33.4971 124.17 33.5852C124.169 33.9539 124.092 34.3192 123.943 34.6623C123.792 35.0175 123.65 35.3441 123.517 35.6423L120.417 42.1641C120.264 41.8491 120.128 41.5631 120.128 41.5631L117.982 36.9115L117.67 36.2354C117.609 36.1068 117.546 35.9829 117.483 35.8632L117.042 34.9373C116.787 34.4029 116.366 33.9478 115.83 33.6281C115.294 33.3084 114.666 33.138 114.025 33.138H112.1V33.708C112.393 33.6968 112.686 33.7418 112.959 33.84C113.232 33.9382 113.479 34.0875 113.684 34.2781C114.06 34.669 114.372 35.1075 114.609 35.5798C114.688 35.7373 114.766 35.901 114.84 36.0664L119.4 45.6987H120.186L125.106 35.4738C125.335 34.971 125.596 34.4803 125.886 34.0041C126.055 33.7125 126.258 33.4386 126.492 33.1873V33.139L124.09 33.1354Z" fill="#33454F"/>
<path d="M146.788 28.7126C146.749 28.7126 146.71 28.7196 146.674 28.7332C146.639 28.7467 146.606 28.7665 146.578 28.7915C146.551 28.8166 146.529 28.8462 146.514 28.8789C146.499 28.9116 146.492 28.9466 146.492 28.9819V36.4113H146.629V36.3992C147.058 34.5364 148.077 32.828 149.561 31.484C151.046 30.14 152.93 29.2191 154.984 28.8344H154.995V28.7147H146.783L146.788 28.7126Z" fill="#FC8F1A"/>
<path d="M154.99 25.8895C152.929 25.5073 151.038 24.5826 149.554 23.2309C148.066 21.8849 147.048 20.1716 146.626 18.3043C146.626 18.2995 146.626 18.2911 146.626 18.2911H146.494V25.7415C146.494 25.8128 146.526 25.8812 146.581 25.9317C146.637 25.9822 146.712 26.0106 146.79 26.0107H154.999V25.8911H154.991" fill="#00BF9C"/>
<path d="M143.232 28.7126H135.024V28.8323H135.03C137.083 29.2159 138.967 30.1354 140.451 31.4777C141.936 32.8201 142.956 34.5268 143.386 36.3882C143.386 36.3955 143.391 36.4097 143.391 36.4097H143.528V28.9819C143.528 28.9105 143.497 28.842 143.441 28.7915C143.385 28.741 143.31 28.7126 143.231 28.7126" fill="#A821A1"/>
<path d="M143.231 26.0102C143.31 26.0102 143.385 25.9818 143.441 25.9313C143.497 25.8808 143.528 25.8124 143.528 25.7409V18.2911H143.396C143.396 18.2911 143.396 18.3001 143.393 18.3048C142.971 20.1717 141.953 21.8845 140.466 23.2304C138.981 24.5819 137.09 25.5066 135.03 25.889H135.024V26.0086H143.232L143.231 26.0102Z" fill="#F2297A"/>
<path d="M153.54 18.0111V18.1838H153.174V19.0509H152.947V18.1838H152.581V18.0111H153.54ZM154.777 19.0499L154.735 18.4389C154.73 18.3586 154.73 18.2594 154.726 18.1486H154.713C154.684 18.2405 154.65 18.3628 154.617 18.4583L154.411 19.0357H154.175L153.97 18.4436C153.948 18.3633 153.915 18.241 153.89 18.1497H153.877C153.877 18.2452 153.873 18.3444 153.868 18.44L153.826 19.0509H153.608L153.692 18.0111H154.032L154.23 18.5192C154.255 18.5995 154.276 18.6767 154.306 18.7817H154.31C154.339 18.6861 154.364 18.598 154.39 18.5192L154.587 18.0074H154.916L155.004 19.0462L154.777 19.0499Z" fill="#33454F"/>
</g>
<defs>
<clipPath id="clip0_1_18552">
<rect width="98" height="40" fill="white" transform="translate(57.0022 18.0074)"/>
</clipPath>
</defs>
</svg>
